<?xml version="1.0" standalone="no"?>
<!DOCTYPE svg PUBLIC "-//W3C//DTD SVG 20010904//EN"
 "http://www.w3.org/TR/2001/REC-SVG-20010904/DTD/svg10.dtd">
<svg version="1.0" xmlns="http://www.w3.org/2000/svg"
 width="512.000000pt" height="512.000000pt" viewBox="0 0 512.000000 512.000000"
 preserveAspectRatio="xMidYMid meet">
<metadata>
Created by potrace 1.11, written by Peter Selinger 2001-2013
</metadata>
<g transform="translate(0.000000,512.000000) scale(0.100000,-0.100000)"
fill="#000000" stroke="none">
<path d="M1558 5006 c-1 -2 -36 -6 -76 -10 -117 -10 -249 -46 -370 -103 -219
-101 -423 -301 -533 -524 -157 -316 -154 -706 8 -1024 69 -135 251 -387 429
-595 12 -14 52 -61 90 -105 38 -44 104 -120 149 -170 44 -49 85 -95 90 -101
122 -136 153 -171 170 -189 11 -11 58 -63 105 -115 47 -52 90 -99 96 -105 5
-5 46 -50 90 -100 43 -49 96 -108 116 -130 21 -22 38 -45 38 -52 0 -13 -56
-59 -112 -91 -107 -61 -276 -81 -403 -47 -212 56 -383 218 -456 431 -26 76
-32 205 -16 361 8 74 7 88 -12 125 -11 24 -31 54 -43 68 -13 14 -75 88 -139
165 -148 178 -193 204 -276 162 -47 -25 -121 -107 -194 -216 -146 -217 -233
-435 -273 -686 -14 -91 -15 -396 -1 -460 3 -16 13 -64 21 -105 109 -545 527
-1013 1061 -1190 160 -52 282 -72 468 -76 209 -5 306 6 475 53 211 57 413 179
683 410 53 46 101 81 107 78 5 -3 70 -81 144 -173 154 -192 230 -269 305 -307
101 -50 163 -57 546 -58 193 0 380 2 417 6 123 13 211 60 236 127 23 61 -17
175 -99 281 -35 45 -490 577 -610 714 -15 16 -47 54 -73 84 l-45 54 22 21 c13
12 88 77 168 146 172 149 198 172 213 185 6 6 58 50 116 100 58 49 112 96 121
105 9 8 42 38 74 65 96 82 158 135 190 164 17 14 77 67 135 116 58 50 114 99
126 110 12 11 43 39 70 61 27 23 63 54 79 69 17 14 44 37 61 51 17 13 39 39
49 58 19 34 19 35 0 57 -11 11 -51 37 -89 56 -38 19 -76 41 -83 49 -8 8 -18
14 -22 14 -16 0 -129 119 -175 183 -119 166 -223 452 -252 692 -3 22 -7 47 -9
55 -3 9 -7 63 -10 120 -8 167 -27 220 -76 220 -31 0 -55 -18 -148 -109 -37
-36 -138 -133 -222 -216 -821 -797 -822 -799 -896 -867 -70 -64 -83 -86 -83
-134 0 -100 104 -361 200 -505 104 -154 235 -279 350 -333 l65 -30 -35 -8
c-92 -21 -212 4 -326 67 -147 80 -211 143 -583 570 -14 17 -109 126 -210 243
l-183 214 76 76 c41 42 97 106 122 142 51 70 135 231 154 295 49 168 55 212
54 385 0 149 -13 228 -55 353 -119 353 -429 643 -784 732 -99 24 -101 25 -200
31 -49 3 -95 7 -102 9 -6 2 -13 2 -15 1z m-75 -1207 c26 -15 56 -50 57 -67 0
-7 19 -52 43 -99 109 -222 320 -320 567 -264 80 19 225 93 304 158 l70 56 -29
-49 c-90 -157 -218 -264 -378 -315 -303 -97 -651 31 -765 280 -43 94 -38 188
15 259 36 48 76 62 116 41z"/>
</g>
</svg>
