<svg version="1.1" id="Capa_1" xmlns="http://www.w3.org/2000/svg" xmlns:xlink="http://www.w3.org/1999/xlink" x="0px" y="0px"
	 viewBox="0 0 400 128.204" style="enable-background:new 0 0 400 128.204;" xml:space="preserve">
<g>
	<path d="M366.88,120.787c-17.021-0.734-51.623-0.468-69.67-0.636c-77.222-0.763-159.109,3.217-234.956-1.953
		c-5.405-0.368-12.842-0.766-5.469-3.981c12.115-5.282-3.194-6.024-16.788-7.005c-8.689-0.626-17.281-0.978-16.025-6.349
		c0.716-3.065,2.676-2.026,2.602-5.66c-0.018-0.848-0.158-2.78,0.116-4.471c0.608-3.742,0.051-2.933-1.816-1.841
		c-12.236,7.161-10.876-2.38-8.884-11.185c1.294-5.719,3.318-13.659,5.602-20.329c0.851-2.485,1.161-4.96-2.404-6.098
		c-2.046-0.652-7.616-0.818-9.136,0.604c-2.386,2.23-5.689,13.257-7.619,23.509c-2.621,13.931-6.415,23.708,8.751,29.736
		c12.387,4.924,25.466,4.815,25.427,8.414c-0.03,2.795-8.744,3.291-13.156,4.456c-3.813,1.006-14.321,3.958-7.628,7.589
		c6.334,3.434,30.014,2.531,38.111,2.459c93.299-0.833,186.588-0.085,279.861-0.491C392.569,127.336,380.814,121.388,366.88,120.787
		L366.88,120.787z"/>
	<path d="M237.236,48.784c-3.455-0.277-2.712,0.325-4.131,4.781c-1.296,4.068-6.497,22.389-7.257,24.975
		c-2.242,7.631,0.145,12.718,3.706,12.824c1.267,0.001,1.025,0.202,1.849,2.978c0.347,1.154,0.804,2.203,1.367,3.145
		c0.814,1.692,1.09,2.335-0.475,2.972c-10.763,4.153-25.033-2.053-22.286-17.386l7.773-25.398c0.705-2.126,0.863-4.167,2.041-7.665
		c0.696-2.067-2.601-1.488-5.509-1.469c-1.9,0.02-3.567,0.718-4.804-1.12c-0.491-0.73-1.746-5.358,0.316-8.962
		c1.816-3.173,10.281-1.867,14.527-1.579c1.245-3.091,2.035-5.692,3.475-8.95c1.175-2.659,2.517-3.705,6.713-4.028
		c2.741-0.211,5.401,0.029,6.605,0.375c7.255,2.084,2.762,5.178,1.004,6.893c-0.895,0.873-2.019,3.071-3.225,5.952l7.624-0.049
		c1.901-0.02,3.568-0.718,4.804,1.12c0.412,0.613,1.363,3.977,0.437,7.172C250.145,51.036,242.409,49.198,237.236,48.784
		L237.236,48.784z"/>
	<path d="M393.94,81.336c-1.773,0.887-3.487,1.719-5.155,2.462c-1.668,0.742-3.278,1.448-4.816,2.155
		c-1.536,0.688-2.97,1.448-4.342,2.299c0.229-2.263,0.354-4.218,0.36-5.883c0.005-1.666-0.064-3.132-0.189-4.399
		c-0.142-1.285-0.3-2.408-0.493-3.367c-0.173-0.978-0.351-1.901-0.535-2.77c-0.184-0.869-0.295-1.738-0.367-2.643
		c-0.071-0.905-0.043-1.901,0.069-3.005c0.147-0.38,0.606-0.978,1.429-1.774c0.805-0.797,1.652-1.665,2.564-2.625
		c0.912-0.959,1.753-1.937,2.527-2.969c0.774-1.032,1.211-1.955,1.297-2.806c0.044-0.434,0.059-0.941,0.045-1.521
		c-0.014-0.579-0.21-1.14-0.574-1.666c-0.381-0.525-1.005-0.978-1.89-1.358c-0.869-0.362-2.17-0.561-3.853-0.561
		c-1.032,0-1.972,0.163-2.833,0.453c-0.864,0.308-1.663,0.688-2.4,1.177c-0.735,0.471-1.424,1.014-2.046,1.611
		c-0.621,0.597-1.21,1.231-1.727,1.865c-2.548,2.824-4.633,5.177-6.237,7.078c-1.602,1.883-2.96,3.494-4.087,4.797
		c-1.127,1.303-2.094,2.444-2.913,3.385c-0.821,0.96-1.73,1.901-2.695,2.842c-0.982,0.941-2.154,1.973-3.501,3.113
		c-1.362,1.122-3.098,2.534-5.261,4.236c-0.297,0.253-0.765,0.58-1.369,1.014c-0.604,0.416-1.232,0.905-1.852,1.484
		c-0.063,0.057-0.125,0.115-0.186,0.174c-4.791,3.242-10.35,6.452-15.496,6.452c-3.478,0-4.905-1.95-6.191-4.833
		c3.164-0.851,6.143-2.027,8.921-3.548c2.797-1.521,5.235-3.259,7.35-5.196c2.099-1.955,3.81-4.018,5.099-6.209
		c1.308-2.19,2.072-4.381,2.293-6.571c0.203-2.009,0.026-3.837-0.515-5.467c-0.541-1.629-1.38-3.005-2.53-4.164
		c-1.134-1.141-2.527-2.046-4.146-2.679c-1.637-0.634-3.451-0.96-5.424-0.96c-2.444,0-4.696,0.435-6.793,1.303
		c-2.079,0.869-4.009,2.046-5.768,3.512c-1.741,1.466-3.324,3.15-4.714,5.087c-1.407,1.919-2.607,3.946-3.618,6.064
		c-1.01,2.118-1.828,4.291-2.431,6.499c-0.622,2.209-1.015,4.308-1.214,6.281c-0.166,1.648-0.198,3.256-0.093,4.824
		c-0.64,0.387-1.292,0.772-1.964,1.15c-1.094,0.616-2.145,1.159-3.172,1.647c-1.007,0.471-1.969,0.851-2.867,1.141
		c-0.897,0.271-1.672,0.417-2.341,0.417c-0.29,0-0.577-0.199-0.843-0.616c-0.286-0.398-0.52-0.942-0.74-1.629
		c-0.22-0.688-0.377-1.466-0.488-2.335c-0.093-0.869-0.113-1.756-0.019-2.679l0.075-0.742c0.18-0.706,0.398-1.43,0.654-2.172
		c0.256-0.742,0.49-1.448,0.737-2.1c0.247-0.651,0.49-1.267,0.746-1.828c0.256-0.561,0.485-1.032,0.7-1.376
		c1.933-3.186,4.018-6.444,6.203-9.794c2.201-3.33,4.392-6.734,6.568-10.173c2.196-3.458,4.321-6.934,6.358-10.427
		c2.055-3.494,3.911-6.987,5.549-10.482c1.637-3.476,3.018-6.933,4.128-10.391c1.108-3.439,1.83-6.825,2.167-10.155
		c0.15-1.485,0.17-2.933,0.099-4.381c-0.091-1.43-0.359-2.715-0.807-3.838c-0.446-1.141-1.133-2.046-2.059-2.734
		C325.397,0.344,324.183,0,322.662,0c-2.226,0-4.485,0.67-6.774,2.009c-2.31,1.358-4.56,3.204-6.769,5.54
		c-2.229,2.353-4.392,5.123-6.522,8.291c-2.111,3.15-4.138,6.553-6.026,10.192c-1.908,3.657-3.687,7.459-5.298,11.405
		c-1.614,3.965-3.081,7.911-4.347,11.839c-1.282,3.91-2.338,7.73-3.182,11.423c-0.826,3.693-1.407,7.114-1.725,10.265
		c-0.413,4.091-0.467,8.019-0.156,11.748c0.105,1.261,0.247,2.471,0.425,3.63c-0.716,0.58-1.436,1.105-2.151,1.584
		c-0.895,0.616-1.775,1.086-2.628,1.466c-0.833,0.362-1.632,0.561-2.374,0.561c-0.995,0-1.6-0.471-1.794-1.412
		c-0.212-0.942-0.227-2.227-0.059-3.892c0.198-1.955,0.586-4.001,1.151-6.191c0.581-2.172,1.181-4.344,1.836-6.517
		c0.636-2.173,1.23-4.29,1.801-6.354c0.554-2.082,0.926-3.964,1.096-5.648c0.112-1.105,0.109-1.973-0.026-2.607
		c-0.135-0.633-0.355-1.14-0.664-1.484c-0.325-0.362-0.702-0.579-1.162-0.688c-0.442-0.108-0.925-0.163-1.468-0.163
		c-0.38,0-0.78,0.018-1.198,0.037c-0.4,0.018-0.798,0.018-1.197,0.018c-0.453,0-0.903-0.018-1.332-0.072
		c-0.447-0.055-0.868-0.181-1.268-0.344c-0.398-0.181-0.731-0.47-0.982-0.851c-0.231-0.398-0.481-0.796-0.748-1.195
		c-0.266-0.416-0.61-0.778-1.031-1.086c-0.419-0.326-1.037-0.489-1.851-0.489c-2.444,0-4.887,0.525-7.346,1.575
		c-2.457,1.032-4.845,2.444-7.142,4.218c-2.295,1.756-4.461,3.838-6.491,6.191c-2.014,2.372-3.825,4.888-5.399,7.567
		c-1.573,2.661-2.881,5.395-3.907,8.201c-1.024,2.788-1.66,5.503-1.929,8.164c-0.236,2.335-0.084,4.417,0.469,6.282
		c0.556,1.846,1.392,3.421,2.491,4.725c1.101,1.285,2.431,2.281,3.972,2.969c1.542,0.688,3.154,1.032,4.856,1.032
		c1.593,0,3.214-0.271,4.86-0.796c1.628-0.525,3.236-1.213,4.787-2.046c1.551-0.833,3.002-1.756,4.337-2.788
		c1.333-1.014,2.486-2.028,3.438-3.023c0.831,2.878,1.97,5.05,3.375,6.553c1.405,1.503,3.265,2.263,5.6,2.263
		c1.937,0,3.942-0.489,5.974-1.43c2.052-0.959,3.981-2.136,5.822-3.512c0.427-0.319,0.845-0.642,1.253-0.969
		c0.624,1.199,1.325,2.238,2.1,3.123c1.477,1.683,3.167,2.516,5.068,2.516c1.213,0,2.515-0.163,3.926-0.507
		c1.408-0.326,2.866-0.779,4.391-1.358c1.505-0.561,2.999-1.195,4.502-1.919c1.505-0.742,2.972-1.466,4.387-2.209
		c0.476-0.259,0.954-0.524,1.433-0.794c0.029,0.041,0.059,0.083,0.089,0.124c1.458,2.046,3.378,3.657,5.737,4.851
		c2.375,1.213,5.23,1.81,8.543,1.81c5.984,0,11.116-2.378,16.489-5.358c1.86-1.032,3.594-2.066,5.222-3.132l0.026-0.018
		c0.137,1.252,0.457,2.356,0.968,3.312c0.715,1.339,1.71,2.426,2.984,3.259c1.273,0.832,2.804,1.448,4.558,1.828
		c1.77,0.398,3.689,0.58,5.771,0.58c2.915,0,6.007-0.326,9.313-0.978c3.288-0.652,6.582-1.539,9.865-2.679
		c3.281-1.122,6.438-2.444,9.467-3.928C398.956,90.367,405.174,75.547,393.94,81.336z M298.563,48.932
		c0.872-3.602,1.892-7.078,3.088-10.482c1.175-3.385,2.476-6.589,3.848-9.595c1.39-3.005,2.779-5.648,4.203-7.911
		c1.406-2.263,2.781-4.055,4.092-5.377c1.31-1.321,2.5-1.991,3.514-1.991c0.29,0,0.416,0.362,0.397,1.086
		c-0.019,0.724-0.089,1.593-0.193,2.625c-0.633,3.222-1.727,6.698-3.281,10.427c-1.535,3.729-3.288,7.458-5.26,11.206
		c-1.972,3.747-4.025,7.404-6.174,10.934c-2.149,3.53-4.155,6.716-6.033,9.54C297.105,56.01,297.712,52.516,298.563,48.932z
		 M261.883,76.683c-0.26,1.14-0.71,2.553-1.353,4.254c-0.659,1.684-1.441,3.331-2.38,4.924c-0.939,1.593-2,2.951-3.183,4.091
		c-1.163,1.122-2.415,1.683-3.718,1.683c-0.815,0-1.464-0.199-1.949-0.598c-0.501-0.416-0.864-0.941-1.124-1.593
		c-0.242-0.652-0.384-1.394-0.426-2.227c-0.043-0.833-0.011-1.683,0.079-2.571c0.158-1.557,0.525-3.222,1.103-4.996
		c0.594-1.756,1.332-3.512,2.252-5.268c0.92-1.756,1.975-3.421,3.168-5.015c1.193-1.593,2.457-3.005,3.795-4.236
		c1.339-1.249,2.741-2.227,4.19-2.951c1.449-0.724,2.916-1.086,4.364-1.086L261.883,76.683z M321.278,74.094
		c0.184-1.104,0.46-2.227,0.797-3.403c0.352-1.158,0.813-2.317,1.365-3.476c0.55-1.141,1.251-2.172,2.067-3.077
		c0.814-0.887,1.794-1.629,2.919-2.19c1.143-0.561,2.458-0.851,3.978-0.851c0.851,0,1.524,0.507,1.998,1.538
		c0.475,1.032,0.633,2.335,0.472,3.928c-0.113,1.122-0.667,2.299-1.675,3.494c-1.009,1.213-2.207,2.317-3.597,3.349
		c-1.388,1.014-2.868,1.865-4.436,2.516c-1.568,0.652-2.995,0.978-4.262,0.978C320.983,76.122,321.114,75.181,321.278,74.094z
		 M368.297,85.01c-0.112,1.104-0.326,2.154-0.646,3.168c-0.318,0.996-0.77,1.883-1.372,2.643c-0.62,0.76-1.388,1.376-2.339,1.829
		c-0.953,0.47-2.115,0.688-3.491,0.688c-1.141,0-2.111-0.254-2.943-0.797c-0.834-0.525-1.553-1.104-2.159-1.738
		c-0.604-0.652-1.143-1.231-1.596-1.756c-0.211-0.245-0.421-0.434-0.628-0.567c0.939-0.996,1.652-1.943,2.164-2.825l12.136-10.982
		c0.124,0.561,0.254,1.249,0.409,2.046c0.154,0.796,0.268,1.647,0.377,2.534c0.107,0.905,0.176,1.847,0.183,2.842
		C368.419,83.092,368.392,84.069,368.297,85.01z"/>
	<path d="M126.461,79.942c-0.834,0.905-1.727,1.864-2.64,2.842c-0.933,0.996-1.901,1.973-2.902,2.915
		c-1.002,0.959-1.977,1.828-2.942,2.607c-0.966,0.778-1.881,1.412-2.761,1.883c-0.88,0.47-1.664,0.706-2.37,0.706
		c-1.322,0-2.254-0.271-2.814-0.815c-0.561-0.543-0.775-1.466-0.647-2.734c0.15-1.484,0.644-2.969,1.5-4.453
		c0.856-1.484,1.894-2.969,3.113-4.472c1.202-1.502,2.512-3.005,3.893-4.489c1.381-1.484,2.69-2.969,3.908-4.453
		c1.2-1.485,2.237-2.969,3.091-4.435c0.854-1.466,1.363-2.914,1.509-4.363c0.15-1.484,0.088-2.842-0.189-4.037
		c-0.257-1.213-0.68-2.227-1.282-3.078c-0.584-0.851-1.296-1.502-2.156-1.955c-0.858-0.471-1.775-0.706-2.771-0.706
		c-1.937,0-3.74,0.29-5.388,0.833c-1.63,0.543-3.055,1.213-4.22,1.991c-0.755,0.489-1.828,1.43-3.18,2.806
		c-1.352,1.376-2.869,2.951-4.515,4.725c-1.644,1.756-3.316,3.62-5.033,5.557c-1.718,1.955-3.292,3.729-4.742,5.359l-1.187-0.797
		l7.271-9.432c0.364-0.561,1.137-1.756,2.299-3.585c1.142-1.81,2.492-4.055,4.044-6.698c1.537-2.661,3.158-5.63,4.867-8.925
		c1.725-3.277,3.334-6.662,4.846-10.155c1.528-3.476,2.839-6.952,3.948-10.409c1.112-3.476,1.819-6.716,2.123-9.722
		c0.17-1.684,0.185-3.258,0.06-4.706c-0.143-1.448-0.506-2.697-1.088-3.747c-0.584-1.032-1.424-1.847-2.541-2.444
		c-1.1-0.579-2.555-0.869-4.365-0.869c-2.299,0-4.465,0.471-6.499,1.43c-2.052,0.96-3.958,2.263-5.754,3.91
		c-1.794,1.629-3.454,3.548-4.979,5.739c-1.543,2.19-2.954,4.507-4.231,6.933c-1.293,2.408-2.47,4.906-3.525,7.476
		c-1.055,2.552-1.993,5.032-2.81,7.386c-0.819,2.371-1.533,4.598-2.121,6.662c-0.607,2.063-1.112,3.837-1.494,5.286
		c-1.084,4.091-2.091,8.327-3.001,12.672c-0.928,4.345-1.729,8.508-2.403,12.491c-0.692,3.983-1.277,7.621-1.759,10.952
		c-0.314,2.256-0.574,4.219-0.771,5.876c-0.382,0.258-0.76,0.502-1.132,0.732c-0.847,0.507-1.632,0.923-2.351,1.231
		c-0.721,0.326-1.334,0.489-1.878,0.489c-1.159,0-1.956-0.706-2.357-2.118c-0.399-1.43-0.489-3.223-0.268-5.413
		c0.133-1.322,0.351-2.752,0.671-4.309c0.32-1.557,0.677-3.114,1.092-4.707c0.396-1.593,0.825-3.15,1.286-4.67
		c0.461-1.521,0.874-2.915,1.239-4.2c0.381-1.267,0.691-2.354,0.947-3.277c0.256-0.924,0.394-1.575,0.435-1.974
		c0.263-2.607-0.037-4.652-0.937-6.137c-0.9-1.484-2.217-2.245-3.991-2.245c-1.774,0-3.422,0.362-4.941,1.068
		c-1.52,0.706-2.937,2.01-4.253,3.928c-0.296,0.416-0.742,1.068-1.32,1.955c-0.578,0.887-1.242,1.901-1.956,3.06
		c-0.713,1.141-1.487,2.353-2.301,3.602c-0.814,1.249-1.569,2.444-2.3,3.585c-0.711,1.122-1.336,2.118-1.895,2.986
		c-0.541,0.869-0.948,1.503-1.186,1.883h-1.068c0.024-0.235,0.127-0.724,0.309-1.448c0.182-0.724,0.394-1.575,0.656-2.553
		c0.262-0.978,0.531-2.027,0.829-3.186c0.296-1.141,0.573-2.263,0.844-3.331c0.254-1.086,0.5-2.081,0.698-2.968
		c0.182-0.905,0.31-1.63,0.363-2.154c0.196-1.937-0.009-3.494-0.632-4.67c-0.626-1.158-1.886-1.756-3.805-1.756
		c-1.901,0-3.478,0.561-4.692,1.648c-1.234,1.104-2.114,2.462-2.677,4.091c-0.699,2.082-1.478,4.598-2.3,7.531
		c-0.821,2.932-1.618,5.974-2.354,9.142c-0.737,3.168-1.414,6.282-2.012,9.341c-0.581,3.059-0.998,5.757-1.234,8.092
		c-0.143,1.412-0.208,2.77-0.18,4.109c0.029,1.322,0.236,2.498,0.6,3.549c0.365,1.05,0.968,1.882,1.793,2.498
		c0.825,0.616,1.952,0.923,3.401,0.923c1.176,0,2.218-0.271,3.158-0.796c0.94-0.525,1.837-1.52,2.69-2.969l16.672-27.57h0.851
		c-0.702,2.824-1.331,5.467-1.852,7.929c-0.537,2.444-0.914,4.743-1.128,6.861c-0.547,5.412-0.293,9.522,0.745,12.328
		c1.038,2.806,2.543,4.218,4.48,4.218c1.955,0,3.829-0.271,5.658-0.814c1.813-0.562,3.586-1.267,5.303-2.136
		c0.711-0.353,1.412-0.73,2.104-1.129c0.038,0.15,0.08,0.297,0.124,0.441c0.357,1.122,0.937,2.009,1.759,2.661
		c0.803,0.652,1.983,0.978,3.503,0.978c1.123,0,2.164-0.271,3.07-0.814c0.926-0.562,1.875-1.539,2.833-2.951l18.353-27.371
		c1.318-1.937,2.505-3.295,3.543-4.073c1.02-0.778,1.839-1.177,2.454-1.177c0.489,0,0.845,0.235,1.071,0.688
		c0.206,0.47,0.291,1.068,0.215,1.81c-0.038,0.38-0.186,0.76-0.438,1.104c-0.254,0.362-0.582,0.742-1.02,1.14
		c-0.422,0.417-0.939,0.869-1.517,1.394c-0.576,0.507-1.214,1.086-1.93,1.719c-1.8,2.046-3.279,3.965-4.456,5.757
		c-1.157,1.774-2.102,3.422-2.795,4.906c-0.693,1.485-1.207,2.806-1.509,4.001c-0.318,1.177-0.528,2.172-0.61,2.987
		c-0.141,1.394-0.094,2.715,0.101,4.019c0.214,1.285,0.713,2.444,1.533,3.457c0.819,1.032,2.002,1.864,3.551,2.48
		c1.549,0.616,3.581,0.923,6.134,0.923c1.937,0,3.994-0.29,6.15-0.851c2.175-0.561,4.282-1.358,6.338-2.354
		c2.076-1.014,4.005-2.19,5.828-3.566C134.093,88.997,130.149,76.008,126.461,79.942z M88.204,65.495
		c0.732-4.2,1.6-8.49,2.565-12.835c0.402-1.829,0.855-3.802,1.355-5.883c0.518-2.082,1.076-4.2,1.69-6.336
		c0.596-2.136,1.248-4.29,1.937-6.444c0.706-2.155,1.423-4.236,2.208-6.264c1.155-2.299,2.181-4.381,3.093-6.245
		c0.914-1.883,1.799-3.476,2.655-4.779c0.856-1.304,1.737-2.317,2.622-3.024c0.868-0.706,1.882-1.068,3.023-1.068
		c0.742,0,1.046,0.579,0.932,1.702c-0.082,0.815-0.328,1.81-0.716,2.969c-0.409,1.177-0.897,2.426-1.467,3.765
		c-0.588,1.339-1.217,2.733-1.891,4.2c-0.671,1.449-1.338,2.843-2.016,4.182c-0.661,1.339-1.278,2.607-1.865,3.765
		c-0.57,1.159-1.03,2.136-1.345,2.914c-0.711,1.666-1.568,3.693-2.606,6.082c-1.036,2.371-2.143,4.906-3.32,7.585
		c-1.174,2.661-2.351,5.359-3.553,8.11C90.307,60.626,89.218,63.16,88.204,65.495z"/>
	<path d="M16.726,46.452c8.868,1.515,14.268-3.276,14.61-8.292c0.355-5.215-3.724-9.895-9.277-10.694
		C7.363,25.352,2.313,43.99,16.726,46.452z"/>
	<path style="fill-rule:evenodd;clip-rule:evenodd;" d="M202.028,69.133c-5.543-2.607-6.741-11.618-6.768-13.893
		c-0.038-3.292-1.188-2.707-2.22-1.614l-13.9,13.401c-1.252,1.078-1.669,1.354-1.439,2.57c0.573,3.026,3.381,8.728,7.61,10.127
		c-3.747,1.145-7.362-2.697-9.312-4.965l-7.28-8.387c2.972-2.431,4.935-6.069,5.113-10.207c0.331-7.701-5.644-14.214-13.345-14.545
		c-7.702-0.331-14.214,5.644-14.545,13.346c-0.116,2.699,0.543,5.253,1.779,7.444c3.017,5.35,12.329,14.751,16.806,19.925
		l-0.011,0.008l0.038,0.032c-5.188,4.838-13.39-0.312-12.387-7.073c0.377-2.544,0.083-2.45-0.817-3.615l-1.843-2.179
		c-1.111-1.331-2.17-3.133-4.481-0.279c-2.781,3.435-4.443,7.681-4.54,12.163c-0.236,10.884,8.396,19.899,19.28,20.135
		c7.388,0.16,10.89-2.726,15.614-6.813c4.114,4.756,4.382,6.736,9.482,6.735l6.566-0.001c3.864-0.001,6.34-1.329,2.769-5.591
		l-8.614-9.97l1.931-1.669l15.008-12.914C203.801,70.202,203.613,69.878,202.028,69.133z M156.796,59.781
		c-1.018-2.447,1.441-4.952,2.447-2.594c0.442,1.035,0.844,2.168,1.829,3.078c3.03,2.796,7.386,1.612,10.302-1.272
		C168.312,65.795,158.975,65.021,156.796,59.781z"/>
</g>
</svg>
